HIERARCHY
ROOT Hips
{
	OFFSET 0.00000 0.00000 0.00000
	CHANNELS 6 Xposition Yposition Zposition Zrotation Yrotation Xrotation 
	JOINT LHipJoint
	{
		OFFSET 0 0 0
		CHANNELS 3 Zrotation Yrotation Xrotation
		JOINT LeftUpLeg
		{
			OFFSET 3.13874 -1.57224 1.49786
			CHANNELS 3 Zrotation Yrotation Xrotation
			JOINT LeftLeg
			{
				OFFSET 2.10955 -5.79594 0.00000
				CHANNELS 3 Zrotation Yrotation Xrotation
				JOINT LeftFoot
				{
					OFFSET 2.41843 -6.64458 0.00000
					CHANNELS 3 Zrotation Yrotation Xrotation
					JOINT LeftToeBase
					{
						OFFSET 0.04713 -0.12948 1.66229
						CHANNELS 3 Zrotation Yrotation Xrotation
						End Site
						{
							OFFSET 0.00000 -0.00000 0.85167
						}
					}
				}
			}
		}
	}
	JOINT RHipJoint
	{
		OFFSET 0 0 0
		CHANNELS 3 Zrotation Yrotation Xrotation
		JOINT RightUpLeg
		{
			OFFSET -3.13988 -1.57224 1.49786
			CHANNELS 3 Zrotation Yrotation Xrotation
			JOINT RightLeg
			{
				OFFSET -2.15006 -5.90725 0.00000
				CHANNELS 3 Zrotation Yrotation Xrotation
				JOINT RightFoot
				{
					OFFSET -2.34496 -6.44273 0.00000
					CHANNELS 3 Zrotation Yrotation Xrotation
					JOINT RightToeBase
					{
						OFFSET -0.08699 -0.23900 1.55223
						CHANNELS 3 Zrotation Yrotation Xrotation
						End Site
						{
							OFFSET -0.00000 -0.00000 0.80281
						}
					}
				}
			}
		}
	}
	JOINT LowerBack
	{
		OFFSET 0 0 0
		CHANNELS 3 Zrotation Yrotation Xrotation
		JOINT Spine
		{
			OFFSET 0.01292 1.96517 -0.16495
			CHANNELS 3 Zrotation Yrotation Xrotation
			JOINT Spine1
			{
				OFFSET 0.02122 1.88666 0.19706
				CHANNELS 3 Zrotation Yrotation Xrotation
				JOINT Neck
				{
					OFFSET 0 0 0
					CHANNELS 3 Zrotation Yrotation Xrotation
					JOINT Neck1
					{
						OFFSET -0.01683 1.81591 0.07903
						CHANNELS 3 Zrotation Yrotation Xrotation
						JOINT Head
						{
							OFFSET 0.00815 1.74013 -0.47700
							CHANNELS 3 Zrotation Yrotation Xrotation
							End Site
							{
								OFFSET -0.00204 1.83225 -0.16933
							}
						}
					}
				}
				JOINT LeftShoulder
				{
					OFFSET 0 0 0
					CHANNELS 3 Zrotation Yrotation Xrotation
					JOINT LeftArm
					{
						OFFSET 3.38482 1.41533 0.19802
						CHANNELS 3 Zrotation Yrotation Xrotation
						JOINT LeftForeArm
						{
							OFFSET 4.32712 -0.00000 0.00000
							CHANNELS 3 Zrotation Yrotation Xrotation
							JOINT LeftHand
							{
								OFFSET 3.28587 -0.00000 -0.00000
								CHANNELS 3 Zrotation Yrotation Xrotation
								JOINT LeftFingerBase
								{
									OFFSET 0 0 0
									CHANNELS 3 Zrotation Yrotation Xrotation
									JOINT LeftHandIndex1
									{
										OFFSET 0.43316 -0.00000 -0.00000
										CHANNELS 3 Zrotation Yrotation Xrotation
										End Site
										{
											OFFSET 0.34922 -0.00000 -0.00000
										}
									}
								}
								JOINT LThumb
								{
									OFFSET 0 0 0
									CHANNELS 3 Zrotation Yrotation Xrotation
									End Site
									{
										OFFSET 0.35456 -0.00000 0.35456
									}
								}
							}
						}
					}
				}
				JOINT RightShoulder
				{
					OFFSET 0 0 0
					CHANNELS 3 Zrotation Yrotation Xrotation
					JOINT RightArm
					{
						OFFSET -3.09725 1.62858 -0.14144
						CHANNELS 3 Zrotation Yrotation Xrotation
						JOINT RightForeArm
						{
							OFFSET -4.29104 -0.00000 0.00000
							CHANNELS 3 Zrotation Yrotation Xrotation
							JOINT RightHand
							{
								OFFSET -3.22720 -0.00000 -0.00000
								CHANNELS 3 Zrotation Yrotation Xrotation
								JOINT RightFingerBase
								{
									OFFSET 0 0 0
									CHANNELS 3 Zrotation Yrotation Xrotation
									JOINT RightHandIndex1
									{
										OFFSET -0.54362 -0.00000 -0.00000
										CHANNELS 3 Zrotation Yrotation Xrotation
										End Site
										{
											OFFSET -0.43828 -0.00000 -0.00000
										}
									}
								}
								JOINT RThumb
								{
									OFFSET 0 0 0
									CHANNELS 3 Zrotation Yrotation Xrotation
									End Site
									{
										OFFSET -0.44497 -0.00000 0.44497
									}
								}
							}
						}
					}
				}
			}
		}
	}
}
MOTION
Frames: 5
Frame Time: 0.0166666
-10.5477 15.8581 2.7805 -152.3760 -81.7226 161.1560 0.0000 0.0000 0.0000 -9.3603 -32.3433 -20.0033 0.2593 3.2761 9.0484 1.8941 0.7964 -26.3336 12.0624 -18.4169 -66.1866 0.0000 0.0000 0.0000 40.0517 10.6170 11.8626 -0.4065 4.0929 -11.3383 -0.2976 -19.0995 -29.2557 -0.0054 0.4740 -1.3023 2.5199 2.9477 6.4560 2.2762 4.3081 -10.5211 0.3436 1.7565 -15.2883 0.9361 -0.6562 -18.4913 -1.1895 -1.9250 35.1744 -1.1264 -1.2315 15.4386 -0.0000 -0.0000 0.0000 -84.6624 13.5297 25.3712 16.6920 -26.4500 -3.9492 -0.0000 -0.0000 11.1117 29.8384 30.7099 16.3269 -7.1250 0.0000 -0.0000 -1.9553 64.3717 -0.9174 -0.0000 -0.0000 0.0000 73.3569 -14.1387 47.2058 -17.3732 27.3472 -4.2574 0.0000 -0.0000 -9.2563 -26.2465 -23.6623 11.1937 7.1250 -0.0000 -0.0000 3.2611 -55.9882 -0.8797
-10.5589 15.8564 2.7785 -153.1640 -81.6266 161.9280 0.0000 0.0000 0.0000 -9.4702 -31.9975 -20.2387 0.2821 3.4158 9.4387 1.8629 0.9506 -26.1732 11.8423 -18.3232 -65.4882 0.0000 0.0000 0.0000 40.0786 10.7241 11.9718 -0.4016 4.0684 -11.2692 -0.3438 -19.0219 -29.4854 -0.0132 0.7405 -2.0350 2.5566 2.9486 6.4133 2.2371 4.3071 -10.5023 0.2820 1.7503 -15.2307 0.9550 -0.6471 -18.5023 -1.2295 -1.8983 35.1229 -1.1405 -1.2227 15.4159 -0.0000 -0.0000 0.0000 -84.5729 13.5901 25.5522 16.6285 -26.3654 -3.9209 -0.0000 -0.0000 10.2967 30.6972 29.1008 16.1055 -7.1250 0.0000 -0.0000 -0.1110 62.8953 -0.0482 -0.0000 -0.0000 0.0000 73.4547 -14.0634 47.1115 -17.2911 27.2399 -4.2197 0.0000 -0.0000 -9.4535 -26.5375 -23.8289 11.4069 7.1250 -0.0000 -0.0000 3.0007 -56.2287 -0.8269
-10.5671 15.8561 2.7761 -153.6980 -81.5628 162.4080 0.0000 0.0000 0.0000 -9.5906 -31.7631 -20.3195 0.2935 3.4837 9.6285 1.8367 0.6961 -25.8988 11.7754 -18.2941 -65.2751 0.0000 0.0000 0.0000 39.9845 10.7879 11.9631 -0.3853 3.9863 -11.0381 -0.3746 -18.8184 -29.4503 -0.0076 0.5628 -1.5466 2.5512 2.9340 6.4902 2.2083 4.2877 -10.5055 0.2528 1.7388 -15.2822 0.8770 -0.5711 -18.4827 -1.0220 -1.8377 35.1540 -1.0286 -1.1786 15.4315 0.0000 0.0000 0.0000 -84.4809 13.2944 25.5736 16.2302 -25.8318 -3.7457 -0.0000 -0.0000 10.3237 30.7585 29.4329 16.3017 -7.1250 0.0000 -0.0000 -0.1752 63.2681 -0.0776 0.0000 0.0000 0.0000 73.4605 -14.1848 47.3091 -17.3340 27.2959 -4.2394 0.0000 -0.0000 -9.7391 -27.0326 -23.5220 11.5102 7.1250 -0.0000 -0.0000 2.3659 -56.0069 -0.6391
-10.5776 15.8590 2.7722 -153.5850 -81.4638 162.2080 0.0000 0.0000 0.0000 -9.5588 -31.6047 -20.2714 0.3001 3.5226 9.7372 1.8412 0.6819 -25.9249 11.6849 -18.2543 -64.9866 0.0000 0.0000 0.0000 40.1126 10.7985 12.1268 -0.3861 3.9903 -11.0493 -0.3655 -18.8849 -29.4683 -0.0029 0.3503 -0.9626 2.5912 2.9283 6.6300 2.2286 4.2948 -10.5435 0.2453 1.7352 -15.4189 0.9362 -0.5390 -18.3687 -1.0870 -1.7887 35.1381 -1.0562 -1.1618 15.3961 -0.0000 -0.0000 0.0000 -84.5519 13.4522 25.3147 16.2108 -25.8056 -3.7373 -0.0000 -0.0000 10.7485 31.2717 29.3031 16.5544 -7.1250 0.0000 -0.0000 0.5319 63.2697 0.2358 -0.0000 -0.0000 0.0000 73.4545 -14.3794 47.6299 -17.3071 27.2609 -4.2271 0.0000 -0.0000 -10.2555 -27.3271 -22.7103 11.2823 7.1250 -0.0000 -0.0000 1.8077 -55.1956 -0.4526
-10.5917 15.8583 2.7686 -154.5960 -81.3836 163.1090 0.0000 0.0000 0.0000 -9.8159 -30.9636 -20.4535 0.3188 3.6296 10.0370 1.7593 0.5283 -25.2912 11.5780 -18.2065 -64.6446 0.0000 0.0000 0.0000 40.0311 10.8339 12.2807 -0.3812 3.9651 -10.9785 -0.3605 -18.9167 -29.4726 -0.0040 0.4085 -1.1224 2.4483 2.9382 6.6727 2.2215 4.2909 -10.5176 0.3150 1.7503 -15.4249 0.9711 -0.5092 -18.4172 -1.1295 -1.7398 35.1489 -1.0722 -1.1422 15.4125 -0.0000 -0.0000 0.0000 -84.6208 13.5451 25.3176 16.2621 -25.8747 -3.7596 -0.0000 -0.0000 10.6442 30.7018 30.1423 16.6033 -7.1250 0.0000 -0.0000 -0.5664 64.0108 -0.2609 -0.0000 -0.0000 0.0000 73.4501 -14.4134 47.5337 -17.2328 27.1637 -4.1931 0.0000 -0.0000 -9.8617 -27.1367 -23.0866 11.3637 7.1250 -0.0000 -0.0000 2.1215 -55.5610 -0.5501
